<svg width="48" height="48" viewBox="0 0 48 48" fill="none" xmlns="http://www.w3.org/2000/svg">
<rect width="48" height="48" rx="24" fill="white"/>
<path d="M6.86731 19.1548H3.09227C3.03106 19.1548 3 19.186 3 19.248V29.9072C3 29.9536 3.03106 30 3.09227 30H6.86731C10.5336 30 12.5678 27.5834 12.5678 24.593C12.5678 21.6027 10.5336 19.1548 6.86731 19.1548ZM6.86731 27.5522H5.8194C5.77326 27.5522 5.72713 27.5209 5.72713 27.4594V21.6959C5.72713 21.6339 5.75819 21.6027 5.8194 21.6027H6.86731C8.83934 21.6027 9.84065 22.9045 9.84065 24.593C9.84065 26.2816 8.83934 27.5522 6.86731 27.5522Z" fill="#2D2D2D"/>
<path d="M41.6101 19.2637L37.4815 26.2352C37.4659 26.2664 37.4504 26.3128 37.4504 26.3441V29.9072C37.4504 29.9692 37.4193 30 37.3577 30H34.8311C34.7694 30 34.7383 29.9541 34.7383 29.9072V26.3441C34.7383 26.3128 34.7228 26.2664 34.7073 26.2352L31.8573 21.4166C31.8262 21.3551 31.7645 21.3551 31.7339 21.4166L28.8684 26.2352C28.8529 26.2664 28.8373 26.3128 28.8373 26.3441V29.9072C28.8373 29.9692 28.8063 30 28.7451 30H26.218C26.1563 30 26.1253 29.9541 26.1253 29.9072V26.3441C26.1253 26.3128 26.1097 26.2664 26.0942 26.2352L21.9665 19.2637C21.9355 19.2016 21.9665 19.1548 22.0277 19.1548H24.986C25.0321 19.1548 25.0787 19.1704 25.0943 19.2168L27.4359 23.4616C27.4669 23.5237 27.5286 23.5237 27.5592 23.4616L29.8396 19.2168C29.8551 19.1704 29.9008 19.1548 29.9474 19.1548H33.5991C33.6452 19.1548 33.6918 19.1704 33.7073 19.2168L36.0489 23.4616C36.08 23.5237 36.1416 23.5237 36.1722 23.4616L38.4526 19.2168C38.4677 19.1704 38.5138 19.1548 38.5604 19.1548H41.5498C41.611 19.1548 41.642 19.2012 41.611 19.2637H41.6101Z" fill="#2D2D2D"/>
<path d="M19.7474 19.2324C19.7323 19.1704 19.6862 19.1548 19.6396 19.1548H16.8508C16.8051 19.1548 16.7585 19.1704 16.743 19.2324L12.3979 29.8916C12.3668 29.9692 12.4134 30 12.4751 30H15.2789C15.3251 30 15.3717 29.9849 15.3872 29.9229L15.9879 28.3115C16.0034 28.2494 16.0496 28.2338 16.0961 28.2338H20.3947C20.4404 28.2338 20.487 28.2494 20.5025 28.3115L21.1032 29.9229C21.1187 29.9849 21.1649 30 21.2114 30H24.0158C24.077 30 24.1236 29.9697 24.0925 29.8916L19.7474 19.2324ZM19.5624 25.9408H16.928C16.8663 25.9408 16.8508 25.8948 16.8663 25.8323L18.1911 22.3927C18.2221 22.3151 18.2838 22.2995 18.3144 22.3927L19.6241 25.8323C19.6396 25.8944 19.6241 25.9408 19.5624 25.9408Z" fill="#2D2D2D"/>
<path d="M43.6136 19C42.843 19 42.2267 19.6197 42.2267 20.3946C42.2267 21.1695 42.843 21.7892 43.6136 21.7892C44.3842 21.7892 45 21.169 45 20.3946C45 19.6201 44.3838 19 43.6136 19ZM43.6136 21.5255C42.9814 21.5255 42.4889 21.0142 42.4889 20.3946C42.4889 19.7749 42.9814 19.2637 43.6136 19.2637C44.2458 19.2637 44.7382 19.7598 44.7382 20.3946C44.7382 21.0294 44.2449 21.5255 43.6136 21.5255ZM44.1677 20.1001C44.1677 19.8057 43.9521 19.6665 43.6743 19.6665H43.1819V21.0611H43.4432V20.5342H43.6131L43.9055 21.0611H44.1828L43.8744 20.503C44.0444 20.4571 44.1672 20.3326 44.1672 20.1001H44.1677ZM43.6437 20.3321H43.4437V19.8985H43.6437C43.7826 19.8985 43.9059 19.9605 43.9059 20.1153C43.9059 20.2545 43.7831 20.3321 43.6437 20.3321Z" fill="#2D2D2D"/>
</svg>
