<svg width="48" height="48" viewBox="0 0 48 48" fill="none" xmlns="http://www.w3.org/2000/svg">
<rect width="48" height="48" rx="24" fill="#DC2626"/>
<path d="M11.5276 30.8194V36.92H9.71231V30.8194H11.5276ZM10.6084 27.6025C10.9225 27.6025 11.1791 27.7021 11.3782 27.9012C11.585 28.0927 11.6884 28.3378 11.6884 28.6365C11.6884 28.9352 11.585 29.1841 11.3782 29.3833C11.1791 29.5747 10.9225 29.6705 10.6084 29.6705C10.2944 29.6705 10.0378 29.5747 9.83869 29.3833C9.63955 29.1841 9.53998 28.9352 9.53998 28.6365C9.53998 28.3378 9.63955 28.0927 9.83869 27.9012C10.0378 27.7021 10.2944 27.6025 10.6084 27.6025ZM16.7806 36.6328C16.5585 36.7859 16.2981 36.9047 15.9993 36.9889C15.7083 37.0732 15.4172 37.1153 15.1262 37.1153C13.7935 37.1076 13.1271 36.3723 13.1271 34.9094V32.0832H12.2655V30.8194H13.1271V29.4982L14.9424 29.2914V30.8194H16.344L16.1487 32.0832H14.9424V34.8864C14.9424 35.1698 14.9883 35.3728 15.0802 35.4954C15.1721 35.6179 15.3177 35.6792 15.5168 35.6792C15.7236 35.6792 15.9419 35.6141 16.1717 35.4839L16.7806 36.6328ZM18.8943 37.1153C18.3658 37.1153 17.9522 36.9659 17.6535 36.6672C17.3624 36.3609 17.2169 35.9281 17.2169 35.369V28.3952L19.0321 28.1999V35.3C19.0321 35.5528 19.1355 35.6792 19.3423 35.6792C19.4496 35.6792 19.5491 35.66 19.6411 35.6217L19.9972 36.9085C19.6679 37.0464 19.3002 37.1153 18.8943 37.1153ZM25.4773 35.1507C25.4773 35.3805 25.508 35.549 25.5692 35.6562C25.6382 35.7634 25.7454 35.8439 25.8909 35.8975L25.5118 37.0808C25.1365 37.0502 24.8301 36.9698 24.5927 36.8396C24.3552 36.7017 24.1714 36.4872 24.0412 36.1962C23.6429 36.8089 23.0302 37.1153 22.203 37.1153C21.5979 37.1153 21.1154 36.9391 20.7554 36.5868C20.3954 36.2345 20.2154 35.7749 20.2154 35.2081C20.2154 34.5418 20.4605 34.0324 20.9507 33.6801C21.4409 33.3278 22.1494 33.1516 23.0761 33.1516H23.6965V32.8874C23.6965 32.5274 23.62 32.2823 23.4668 32.1521C23.3136 32.0142 23.0455 31.9453 22.6625 31.9453C22.4634 31.9453 22.2221 31.9759 21.9387 32.0372C21.6554 32.0908 21.3643 32.1674 21.0656 32.267L20.652 31.0721C21.035 30.9266 21.4256 30.8155 21.8239 30.739C22.2298 30.6624 22.6051 30.6241 22.9498 30.6241C23.8229 30.6241 24.4625 30.8041 24.8684 31.164C25.2744 31.524 25.4773 32.064 25.4773 32.784V35.1507ZM22.7315 35.817C23.1451 35.817 23.4668 35.6217 23.6965 35.2311V34.1512H23.2485C22.8349 34.1512 22.5247 34.2239 22.3179 34.3694C22.1187 34.515 22.0192 34.7409 22.0192 35.0473C22.0192 35.2924 22.0804 35.4839 22.203 35.6217C22.3332 35.7519 22.5094 35.817 22.7315 35.817ZM30.3814 30.6241C31.109 30.6241 31.6681 30.9113 32.0588 31.4857C32.4494 32.0525 32.6447 32.8491 32.6447 33.8754C32.6447 34.5035 32.5451 35.0626 32.346 35.5528C32.1545 36.043 31.8749 36.426 31.5073 36.7017C31.1473 36.9774 30.7184 37.1153 30.2205 37.1153C29.8912 37.1153 29.5886 37.0464 29.3129 36.9085C29.0448 36.7706 28.8151 36.5791 28.6236 36.334L28.5317 36.92H26.9232V28.3952L28.7385 28.1999V31.4398C28.9223 31.187 29.1559 30.9879 29.4393 30.8424C29.7303 30.6968 30.0444 30.6241 30.3814 30.6241ZM29.692 35.7941C30.4044 35.7941 30.7605 35.1545 30.7605 33.8754C30.7605 33.1478 30.6763 32.6461 30.5078 32.3704C30.3393 32.0946 30.0942 31.9568 29.7725 31.9568C29.3665 31.9568 29.0219 32.1942 28.7385 32.6691V35.2081C28.8534 35.392 28.9912 35.5375 29.1521 35.6447C29.3206 35.7443 29.5006 35.7941 29.692 35.7941ZM34.7205 34.659C35.0606 34.659 35.3501 34.783 35.5891 35.0312C35.8372 35.2702 35.9613 35.5597 35.9613 35.8998C35.9613 36.249 35.8372 36.5477 35.5891 36.7959C35.3501 37.0349 35.0606 37.1544 34.7205 37.1544C34.3712 37.1544 34.0725 37.0349 33.8244 36.7959C33.5854 36.5477 33.4659 36.249 33.4659 35.8998C33.4659 35.5597 33.5854 35.2702 33.8244 35.0312C34.0725 34.783 34.3712 34.659 34.7205 34.659Z" fill="white"/>
<path d="M9.02842 21.865C9.13469 22.698 9.53516 23.4037 10.1858 23.9061C10.9116 24.4679 11.9289 24.7455 13.1336 24.7455C14.5959 24.7455 16.3352 24.3312 18.1638 23.5247C19.9928 24.3312 21.7323 24.7455 23.1943 24.7455C24.3987 24.7455 25.4156 24.4679 26.141 23.9065C26.7924 23.4037 27.1925 22.6976 27.299 21.865C27.4597 20.6063 26.9347 19.0706 25.827 17.4984C26.9347 15.9256 27.4593 14.3902 27.2986 13.1318C27.1925 12.2986 26.7921 11.5929 26.1414 11.0904C24.535 9.84651 21.4983 9.99995 18.1638 11.4708C14.8286 9.99995 11.7926 9.84688 10.1866 11.0901C9.53516 11.5929 9.13506 12.2989 9.02842 13.1318C8.86771 14.3902 9.39272 15.926 10.5005 17.4984C9.39272 19.071 8.86771 20.6063 9.02842 21.865V21.865ZM11.1197 22.6976C10.7873 22.4411 10.599 22.1055 10.5436 21.6713C10.4439 20.8912 10.7906 19.8565 11.496 18.7529C12.1942 19.5343 13.0125 20.2883 13.9385 21.0035C14.7051 21.598 15.5124 22.1281 16.3443 22.6022C14.0793 23.3823 12.0816 23.4419 11.1197 22.6976ZM18.1638 13.1584C19.3043 13.7144 20.4352 14.4109 21.4541 15.2009C22.3869 15.9209 23.2201 16.7068 23.897 17.4984C23.2204 18.2895 22.3869 19.0757 21.4528 19.7966C20.4352 20.5855 19.3039 21.2818 18.1638 21.8378C17.0233 21.2818 15.8918 20.5855 14.8731 19.7953C13.9404 19.0753 13.1072 18.2895 12.4302 17.498C13.1068 16.7068 13.9404 15.9205 14.8742 15.1998C15.8918 14.4109 17.0228 13.7148 18.1638 13.1584V13.1584ZM25.784 21.6717C25.7286 22.1055 25.5399 22.4411 25.2069 22.6984C24.2458 23.4419 22.2478 23.3826 19.9829 22.6029C20.8144 22.1284 21.6213 21.5988 22.3876 21.0051C23.3146 20.2892 24.1332 19.5347 24.8316 18.7539C25.5369 19.8565 25.8835 20.8916 25.784 21.6717ZM23.2173 11.7724C24.0596 11.7724 24.7507 11.9451 25.2073 12.2986C25.5399 12.5551 25.7282 12.8909 25.7836 13.3249C25.8832 14.105 25.5366 15.1397 24.8313 16.2433C24.1329 15.4621 23.3146 14.7079 22.3887 13.9928C21.6224 13.3986 20.8159 12.8691 19.9851 12.3951C21.1726 11.9867 22.2879 11.7724 23.2173 11.7724ZM10.5436 13.3249C10.599 12.8913 10.7877 12.5555 11.1205 12.2982C11.5772 11.9451 12.2676 11.7724 13.1096 11.7724C14.0388 11.7724 15.1543 11.9867 16.3421 12.3951C15.5111 12.8695 14.7051 13.3982 13.94 13.992C13.0128 14.7079 12.1942 15.4625 11.496 16.2433C10.7906 15.1401 10.4439 14.105 10.5436 13.3249Z" fill="white"/>
<path d="M18.1638 18.6439C18.7953 18.6439 19.3093 18.1299 19.3093 17.4984C19.3093 16.8667 18.7953 16.3529 18.1638 16.3529C17.5321 16.3529 17.0183 16.8667 17.0183 17.4984C17.0183 18.1299 17.5321 18.6439 18.1638 18.6439Z" fill="white"/>
</svg>
