<svg width="48" height="48" viewBox="0 0 48 48" fill="none" xmlns="http://www.w3.org/2000/svg">
<rect width="48" height="48" rx="24" fill="white"/>
<path fill-rule="evenodd" clip-rule="evenodd" d="M14.2437 14.0039C12.9831 14.1352 11.9951 15.2302 11.9951 16.5576C11.9951 17.9734 13.1197 19.1267 14.5002 19.1267C15.8807 19.1267 17.0053 17.9734 17.0053 16.5576C17.0053 15.1418 15.8807 14.0039 14.5002 14.0039C14.4139 14.0039 14.3277 13.9951 14.2437 14.0039ZM9.5051 20.659C8.12036 20.659 7 21.8129 7 23.2281V28.8617H18.4993V30.4094H7V31.4309C7 32.8498 8.1282 34 9.5051 34H19.4953C20.8734 34 22.0004 32.8467 22.0004 31.4309V25.7973H10.5011V24.2496H22.0004V23.2281C22.0004 21.8117 20.8928 20.6589 19.5104 20.659H9.5051ZM24.0075 20.659V34H33.032L41 20.659H33.2281L30.8136 24.7139V20.659H24.0075ZM25.3205 22.0054H29.5007V29.4808L33.9676 22.0054H38.6609L32.2925 32.6535H25.3205V22.0054Z" fill="#DC2626"/>
</svg>
