<svg width="24" height="24" viewBox="0 0 24 24" fill="none" xmlns="http://www.w3.org/2000/svg">
<path d="M2.40346 8H0.0574117C0.0182674 8 0 8.02103 0 8.06046V14.9369C0 14.9658 0.0182674 14.9974 0.0574117 14.9974H2.40346C4.68166 14.9974 5.94472 13.4386 5.94472 11.5092C5.94472 9.5798 4.68166 8 2.40346 8ZM2.40346 13.4176H1.75106C1.72235 13.4176 1.69365 13.3965 1.69365 13.3571V9.64026C1.69365 9.60083 1.71191 9.5798 1.75106 9.5798H2.40346C3.62999 9.5798 4.25108 10.421 4.25108 11.5092C4.25108 12.5974 3.62999 13.4176 2.40346 13.4176ZM23.9903 8.07097L21.425 12.5685C21.4146 12.5896 21.4067 12.6185 21.4067 12.6395V14.9395C21.4067 14.979 21.3885 15 21.3493 15H19.7783C19.7392 15 19.7209 14.9711 19.7209 14.9395V12.6395C19.7209 12.6185 19.7105 12.5896 19.7027 12.5685L17.9307 9.45888C17.9125 9.41945 17.8733 9.41945 17.855 9.45888L16.0753 12.5685C16.0648 12.5896 16.057 12.6185 16.057 12.6395V14.9395C16.057 14.979 16.0387 15 15.9996 15H14.4286C14.3895 15 14.3712 14.9711 14.3712 14.9395V12.6395C14.3712 12.6185 14.3608 12.5896 14.3529 12.5685L11.7851 8.07097C11.7668 8.03154 11.7851 8 11.8242 8H13.6614C13.6901 8 13.7188 8.01051 13.7292 8.03943L15.1854 10.7784C15.2037 10.8179 15.2428 10.8179 15.2611 10.7784L16.6755 8.03943C16.6859 8.01051 16.7146 8 16.7433 8H19.0111C19.0398 8 19.0685 8.01051 19.079 8.03943L20.5351 10.7784C20.5534 10.8179 20.5925 10.8179 20.6108 10.7784L22.0278 8.03943C22.0383 8.01051 22.067 8 22.0957 8H23.9537C23.9929 8 24.0111 8.02891 23.9929 8.07097H23.9903ZM10.4046 8.04994C10.3941 8.01051 10.3654 8 10.3367 8H8.60393C8.57522 8 8.54652 8.01051 8.53608 8.04994L5.83512 14.9264C5.81685 14.9763 5.84556 14.9974 5.88209 14.9974H7.62532C7.65403 14.9974 7.68273 14.9869 7.69317 14.9474L8.06635 13.9065C8.07679 13.8671 8.10549 13.8566 8.1342 13.8566H10.8038C10.8325 13.8566 10.8613 13.8671 10.8717 13.9065L11.2449 14.9474C11.2553 14.9869 11.284 14.9974 11.3127 14.9974H13.0559C13.0951 14.9974 13.1238 14.979 13.1029 14.9264L10.4046 8.04994ZM10.2897 12.3793H8.65351C8.61437 12.3793 8.60654 12.3504 8.61437 12.3083L9.4364 10.0897C9.45467 10.0398 9.49381 10.0293 9.51208 10.0897L10.3263 12.3083C10.3367 12.3477 10.3263 12.3793 10.2871 12.3793H10.2897Z" fill="#141A22" style="fill:#141A22;fill:color(display-p3 0.0784 0.1020 0.1333);fill-opacity:1;"/>
</svg>
