<svg width="24" height="24" viewBox="0 0 24 24" fill="none" xmlns="http://www.w3.org/2000/svg">
<path d="M1.28431 17.6212C1.40897 18.5983 1.87872 19.4261 2.64197 20.0154C3.49334 20.6744 4.68654 21 6.09974 21C7.81496 21 9.85516 20.5141 12.0001 19.568C14.1455 20.5141 16.1859 21 17.9009 21C19.3137 21 20.5064 20.6744 21.3574 20.0159C22.1215 19.4261 22.5908 18.5979 22.7157 17.6212C22.9042 16.1448 22.2884 14.3434 20.9891 12.4991C22.2884 10.6542 22.9038 8.85328 22.7153 7.3771C22.5908 6.39975 22.1211 5.572 21.3578 4.98261C19.4735 3.52349 15.9115 3.70347 12.0001 5.42875C8.08789 3.70347 4.52667 3.52392 2.64284 4.98218C1.87872 5.572 1.40941 6.40019 1.28431 7.3771C1.0958 8.85328 1.71164 10.6547 3.01112 12.4991C1.71164 14.3438 1.0958 16.1448 1.28431 17.6212ZM3.73741 18.5979C3.34747 18.2969 3.12659 17.9033 3.06164 17.394C2.94464 16.4789 3.35141 15.2652 4.17873 13.9707C4.99774 14.8873 5.95759 15.7717 7.04384 16.6106C7.94311 17.308 8.89006 17.9298 9.86587 18.4859C7.20896 19.4009 4.86565 19.4709 3.73741 18.5979ZM12.0001 7.40837C13.3379 8.06052 14.6645 8.87756 15.8596 9.80417C16.9538 10.6488 17.9311 11.5706 18.7252 12.4991C17.9315 13.4271 16.9538 14.3493 15.8581 15.195C14.6645 16.1203 13.3374 16.9371 12.0001 17.5892C10.6624 16.9371 9.3351 16.1203 8.14016 15.1934C7.04603 14.3489 6.06869 13.4271 5.27461 12.4987C6.06825 11.5706 7.04603 10.6483 8.14147 9.80285C9.3351 8.87756 10.6617 8.06096 12.0001 7.40837ZM20.9386 17.3944C20.8736 17.9033 20.6523 18.2969 20.2617 18.5987C19.1344 19.4709 16.7906 19.4013 14.1339 18.4868C15.1093 17.9302 16.0558 17.3089 16.9546 16.6126C18.042 15.7728 19.0023 14.8877 19.8215 13.9718C20.6488 15.2652 21.0554 16.4794 20.9386 17.3944ZM17.9278 5.7826C18.9159 5.7826 19.7266 5.98511 20.2622 6.39975C20.6523 6.70068 20.8732 7.09454 20.9381 7.60367C21.0549 8.51868 20.6484 9.73243 19.8211 11.0269C19.0018 10.1106 18.042 9.22594 16.9559 8.38703C16.0571 7.69005 15.111 7.06896 14.1365 6.51304C15.5294 6.03388 16.8376 5.7826 17.9278 5.7826ZM3.06164 7.60367C3.12659 7.09498 3.34791 6.70111 3.73828 6.39932C4.27408 5.98511 5.08391 5.7826 6.07153 5.7826C7.1615 5.7826 8.46995 6.03388 9.86325 6.51304C8.88853 7.0694 7.94311 7.68961 7.04559 8.38615C5.95803 9.22594 4.99774 10.111 4.17873 11.0269C3.35141 9.73287 2.94464 8.51868 3.06164 7.60367Z" fill="url(#paint0_linear_59_576)"/>
<path d="M12.0001 13.8428C12.7409 13.8428 13.3438 13.2399 13.3438 12.4991C13.3438 11.7582 12.7409 11.1555 12.0001 11.1555C11.2592 11.1555 10.6565 11.7582 10.6565 12.4991C10.6565 13.2399 11.2592 13.8428 12.0001 13.8428Z" fill="url(#paint1_linear_59_576)"/>
<defs>
<linearGradient id="paint0_linear_59_576" x1="12.0002" y1="11.1555" x2="12.0002" y2="13.8428" gradientUnits="userSpaceOnUse">
<stop stop-color="#DC2626" style="stop-color:#DC2626;stop-color:color(display-p3 0.8627 0.1490 0.1490);stop-opacity:1;"/>
<stop offset="1" stop-color="#C70101" style="stop-color:#C70101;stop-color:color(display-p3 0.7798 0.0023 0.0023);stop-opacity:1;"/>
</linearGradient>
<linearGradient id="paint1_linear_59_576" x1="12.0002" y1="11.1555" x2="12.0002" y2="13.8428" gradientUnits="userSpaceOnUse">
<stop stop-color="#DC2626" style="stop-color:#DC2626;stop-color:color(display-p3 0.8627 0.1490 0.1490);stop-opacity:1;"/>
<stop offset="1" stop-color="#C70101" style="stop-color:#C70101;stop-color:color(display-p3 0.7798 0.0023 0.0023);stop-opacity:1;"/>
</linearGradient>
</defs>
</svg>
