<svg width="24" height="24" viewBox="0 0 24 24" fill="none" xmlns="http://www.w3.org/2000/svg">
<g clip-path="url(#clip0_59_574)">
<path fill-rule="evenodd" clip-rule="evenodd" d="M2 6.07484V15.7162C2 16.055 2.24698 16.3297 2.55164 16.3297C2.62605 16.3297 2.69969 16.3129 2.76813 16.2804L5.87119 14.808L2.0874 6.05269C2.0764 6.02725 2.04894 6.01653 2.02606 6.02876C2.01013 6.03728 2 6.05519 2 6.07484Z" fill="black" style="fill:black;fill-opacity:1;"/>
<path fill-rule="evenodd" clip-rule="evenodd" d="M2 6.07484V15.7162C2 16.055 2.24698 16.3297 2.55164 16.3297C2.62605 16.3297 2.69969 16.3129 2.76813 16.2804L5.87119 14.808L2.0874 6.05269C2.0764 6.02725 2.04894 6.01653 2.02606 6.02876C2.01013 6.03728 2 6.05519 2 6.07484Z" stroke="black" style="stroke:black;stroke-opacity:1;" stroke-width="2" stroke-linecap="square"/>
<path fill-rule="evenodd" clip-rule="evenodd" d="M2.06634 6.53166L5.46058 14.3856C5.58768 14.6796 5.89955 14.8116 6.1703 14.6859L16.0906 10.0798C16.3717 9.94923 16.5045 9.58994 16.3871 9.27728C16.3829 9.26606 16.3784 9.25498 16.3735 9.24406L12.8984 1.34402C12.7695 1.05101 12.457 0.921404 12.187 1.04903L2.3477 5.70134C2.06732 5.83391 1.93667 6.19414 2.05587 6.50595C2.05919 6.51461 2.06268 6.52318 2.06634 6.53166Z" stroke="black" style="stroke:black;stroke-opacity:1;" stroke-width="2" stroke-linecap="square"/>
<path fill-rule="evenodd" clip-rule="evenodd" d="M11.1476 13.056V22.3865C11.1476 22.7253 11.3946 23 11.6993 23C11.7726 23 11.8452 22.9837 11.9128 22.9522L21.5492 18.4535C21.8223 18.3259 22 18.0287 22 17.6992V8.31105C22 7.97224 21.753 7.69757 21.4484 7.69757C21.3742 7.69757 21.3008 7.71421 21.2325 7.74648L11.5954 12.3032C11.3239 12.4316 11.1476 12.7279 11.1476 13.056Z" stroke="black" style="stroke:black;stroke-opacity:1;" stroke-width="2" stroke-linecap="square"/>
</g>
<defs>
<clipPath id="clip0_59_574">
<rect width="24" height="24" fill="white" style="fill:white;fill-opacity:1;"/>
</clipPath>
</defs>
</svg>
