<svg width="48" height="48" viewBox="0 0 48 48" fill="none" xmlns="http://www.w3.org/2000/svg">
<rect width="48" height="48" rx="24" fill="white"/>
<path fill-rule="evenodd" clip-rule="evenodd" d="M12 17.7064V28.5478C12 28.9287 12.3087 29.2376 12.6895 29.2376C12.7826 29.2376 12.8746 29.2188 12.9602 29.1822L16.839 27.5265L12.1093 17.6815C12.0955 17.6529 12.0612 17.6409 12.0326 17.6546C12.0127 17.6642 12 17.6843 12 17.7064Z" fill="black" stroke="black" stroke-width="2.49541" stroke-linecap="square"/>
<path fill-rule="evenodd" clip-rule="evenodd" d="M12.0829 18.2201L16.3257 27.0515C16.4845 27.3822 16.8744 27.5306 17.2128 27.3893L29.6131 22.2098C29.9645 22.063 30.1304 21.659 29.9837 21.3075C29.9784 21.2948 29.9728 21.2824 29.9668 21.2701L25.6229 12.3868C25.4618 12.0573 25.0711 11.9116 24.7337 12.0551L12.4346 17.2864C12.0841 17.4355 11.9208 17.8406 12.0698 18.1912C12.0739 18.2009 12.0783 18.2106 12.0829 18.2201Z" stroke="black" stroke-width="2.49541" stroke-linecap="square"/>
<path fill-rule="evenodd" clip-rule="evenodd" d="M23.4344 25.5564V36.0483C23.4344 36.4293 23.7432 36.7381 24.124 36.7381C24.2156 36.7381 24.3064 36.7198 24.3909 36.6844L36.4363 31.6257C36.7777 31.4823 36.9998 31.1481 36.9998 30.7776V20.221C36.9998 19.84 36.6911 19.5311 36.3103 19.5311C36.2176 19.5311 36.1258 19.5498 36.0405 19.5861L23.9941 24.71C23.6548 24.8543 23.4344 25.1875 23.4344 25.5564Z" stroke="black" stroke-width="2.49541" stroke-linecap="square"/>
</svg>
