<svg width="24" height="24" viewBox="0 0 24 24" fill="none" xmlns="http://www.w3.org/2000/svg">
<path fill-rule="evenodd" clip-rule="evenodd" d="M5.68708 5.00252C4.87144 5.08751 4.23213 5.79604 4.23213 6.6549C4.23213 7.57103 4.9598 8.3173 5.85308 8.3173C6.74636 8.3173 7.47403 7.57103 7.47403 6.6549C7.47403 5.73878 6.74636 5.00252 5.85308 5.00252C5.79725 5.00252 5.74146 4.99685 5.68708 5.00252ZM2.62095 9.30873C1.72494 9.30873 0.999997 10.0554 1 10.9711V14.6164H8.44075V15.6178H1V16.2788C1 17.1969 1.73001 17.9412 2.62095 17.9412H9.08522C9.97694 17.9412 10.7062 17.1949 10.7062 16.2788V12.6335H3.26542V11.6321H10.7062V10.9711C10.7062 10.0546 9.98944 9.30873 9.09498 9.30873H2.62095ZM12.0049 9.30873V17.9412H17.8442L23 9.30873H17.9711L16.4088 11.9325V9.30873H12.0049ZM12.8544 10.18H15.5593V15.017L18.4496 10.18H21.4865L17.3657 17.0699H12.8544V10.18Z" fill="#DC2626" style="fill:#DC2626;fill:color(display-p3 0.8627 0.1490 0.1490);fill-opacity:1;"/>
</svg>
